<?xml version="1.0" encoding="utf-8"?>
<!-- Generator: Adobe Illustrator 23.0.1, SVG Export Plug-In . SVG Version: 6.00 Build 0)  -->
<svg version="1.1" id="Camada_1" xmlns="http://www.w3.org/2000/svg" xmlns:xlink="http://www.w3.org/1999/xlink" x="0px" y="0px"
	 viewBox="0 0 512 512" style="enable-background:new 0 0 512 512;" xml:space="preserve">
<style type="text/css">
	.st0{opacity:0.8;fill:#FFFFFF;}
	.st1{fill:#A91E50;}
</style>
<circle class="st0" cx="256" cy="256" r="256"/>
<path class="st1" d="M192.4,151.8v53.7l-91.2,52.1l91.2,54v52.6L54,282.2v-47.9L192.4,151.8z M292.1,194.4
	c0-11.6-10.7-18.9-19.2-13.1c-8.5,5.8-8.5,20.4,0,26.3C281.4,213.3,292.1,206,292.1,194.4z M257.2,230.1
	c-28.9-15.8-28.9-55.6,0-71.4c28.9-15.8,65.1,4.1,65.1,35.7S286.1,246,257.2,230.1z M411.8,322.9c0-11.6-10.7-18.9-19.2-13.1
	c-8.5,5.8-8.5,20.4,0,26.3C401.1,341.8,411.8,334.5,411.8,322.9z M376.9,358.6c-28.9-15.8-28.9-55.6,0-71.4
	c28.9-15.8,65.1,4.1,65.1,35.7S405.7,374.5,376.9,358.6z M288.2,364.2l150.4-212.4h-51.4L234.3,364.2H288.2z"/>
</svg>
